<svg width="29" height="29" viewBox="0 0 29 29" fill="none" xmlns="http://www.w3.org/2000/svg">
<path d="M25.4997 16.25C25.4977 18.1059 24.7595 19.8852 23.4472 21.1975C22.1349 22.5098 20.3556 23.248 18.4997 23.25H8.87471C8.64265 23.25 8.42009 23.1578 8.25599 22.9937C8.0919 22.8296 7.99971 22.6071 7.99971 22.375C7.99971 22.1429 8.0919 21.9204 8.25599 21.7563C8.42009 21.5922 8.64265 21.5 8.87471 21.5H18.4997C19.8921 21.5 21.2275 20.9469 22.212 19.9623C23.1966 18.9777 23.7497 17.6424 23.7497 16.25C23.7497 14.8576 23.1966 13.5223 22.212 12.5377C21.2275 11.5531 19.8921 11 18.4997 11H5.73674L9.49377 14.7559C9.65796 14.9201 9.7502 15.1428 9.7502 15.375C9.7502 15.6072 9.65796 15.8299 9.49377 15.9941C9.32959 16.1582 9.1069 16.2505 8.87471 16.2505C8.64252 16.2505 8.41983 16.1582 8.25565 15.9941L3.00565 10.7441C2.92429 10.6628 2.85976 10.5663 2.81572 10.4601C2.77169 10.3538 2.74902 10.24 2.74902 10.125C2.74902 10.01 2.77169 9.89615 2.81572 9.78993C2.85976 9.6837 2.92429 9.5872 3.00565 9.50594L8.25565 4.25594C8.41983 4.09175 8.64252 3.99951 8.87471 3.99951C9.1069 3.99951 9.32959 4.09175 9.49377 4.25594C9.65796 4.42012 9.7502 4.6428 9.7502 4.875C9.7502 5.10719 9.65796 5.32988 9.49377 5.49406L5.73674 9.25H18.4997C20.3556 9.25203 22.1349 9.99017 23.4472 11.3025C24.7595 12.6148 25.4977 14.3941 25.4997 16.25Z" fill="#343330"/>
</svg>
