<svg width="38" height="39" viewBox="0 0 38 39" fill="none" xmlns="http://www.w3.org/2000/svg">
<path fill-rule="evenodd" clip-rule="evenodd" d="M0.907435 12.659C0.177246 14.09 0.177246 15.7181 0.177246 18.9742V29.1433C0.177246 33.6653 0.177246 35.9263 1.7357 37.3311C3.29415 38.7359 5.80244 38.7359 10.819 38.7359H11.2501V26.7453C11.2501 24.8387 12.9339 23.4479 14.8098 23.4479H22.7912C24.6671 23.4479 26.3509 24.8387 26.3509 26.7453V38.7359H26.7817C31.7983 38.7359 34.3066 38.7359 35.865 37.3311C37.4235 35.9263 37.4235 33.6653 37.4235 29.1433V18.9742C37.4235 15.7181 37.4235 14.09 36.6933 12.659C35.9631 11.2279 34.5918 10.1684 31.8492 8.04932L29.1887 5.99376C24.2315 2.16361 21.7529 0.248535 18.8004 0.248535C15.8479 0.248535 13.3693 2.16361 8.41199 5.99376L5.75155 8.04932L5.75155 8.04932C3.00893 10.1684 1.63762 11.2279 0.907435 12.659ZM24.5523 38.7359V26.7453C24.5523 26.0031 23.8539 25.2465 22.7912 25.2465H14.8098C13.7471 25.2465 13.0487 26.0031 13.0487 26.7453V38.7359H24.5523Z" fill="#222222"/>
</svg>
