<svg width="74" height="67" viewBox="0 0 74 67" fill="none" xmlns="http://www.w3.org/2000/svg">
<path fill-rule="evenodd" clip-rule="evenodd" d="M16.5093 28.1144C15.6748 29.7499 15.6748 31.6105 15.6748 35.3318V46.9536C15.6748 52.1216 15.6748 54.7056 17.4559 56.311C19.237 57.9165 22.1036 57.9165 27.8368 57.9165H28.3293V44.213C28.3293 42.0339 30.2537 40.4445 32.3976 40.4445H41.5191C43.663 40.4445 45.5874 42.0339 45.5874 44.213V57.9165H46.0799C51.8131 57.9165 54.6798 57.9165 56.4608 56.311C58.2419 54.7056 58.2419 52.1216 58.2419 46.9536V35.3318C58.2419 31.6105 58.2419 29.7499 57.4074 28.1144C56.5729 26.4789 55.0057 25.268 51.8713 22.8462L48.8308 20.497C43.1654 16.1197 40.3326 13.931 36.9584 13.931C33.5841 13.931 30.7514 16.1197 25.0859 20.497L22.0454 22.8462C18.911 25.268 17.3438 26.4789 16.5093 28.1144ZM43.5319 57.9165V44.213C43.5319 43.3647 42.7337 42.5 41.5191 42.5H32.3976C31.1831 42.5 30.3849 43.3647 30.3849 44.213V57.9165H43.5319Z" fill="#222222"/>
</svg>
