<svg width="84" height="72" viewBox="0 0 84 72" fill="none" xmlns="http://www.w3.org/2000/svg">
<path fill-rule="evenodd" clip-rule="evenodd" d="M19.0185 30.523C18.0679 32.307 18.0679 34.3366 18.0679 38.3957V51.0727C18.0679 56.7099 18.0679 59.5286 20.0968 61.2798C22.1257 63.0311 25.3911 63.0311 31.922 63.0311H32.7545V48.0833C32.7545 45.8159 34.8366 44.1944 37.1173 44.1944H47.508C49.7887 44.1944 51.8708 45.8159 51.8708 48.0833V63.0311H52.7033C59.2342 63.0311 62.4997 63.0311 64.5286 61.2798C66.5575 59.5286 66.5575 56.7099 66.5575 51.0727V38.3957C66.5575 34.3366 66.5575 32.307 65.6068 30.523C64.6562 28.739 62.871 27.4182 59.3005 24.7766L55.8369 22.2141C49.3832 17.4393 46.1564 15.0519 42.3127 15.0519C38.4689 15.0519 35.2421 17.4393 28.7884 22.2141L25.3249 24.7766C21.7543 27.4182 19.9691 28.739 19.0185 30.523ZM50.0722 63.0311V48.0833C50.0722 47.0486 49.0529 45.9931 47.508 45.9931H37.1173C35.5724 45.9931 34.5531 47.0486 34.5531 48.0833V63.0311H50.0722Z" fill="#222222"/>
</svg>
