<svg width="65" height="58" viewBox="0 0 65 58" fill="none" xmlns="http://www.w3.org/2000/svg">
<path fill-rule="evenodd" clip-rule="evenodd" d="M14.2824 24.6591C13.5522 26.0901 13.5522 27.7182 13.5522 30.9743V41.1434C13.5522 45.6654 13.5522 47.9264 15.1107 49.3312C16.6692 50.736 19.1774 50.736 24.194 50.736H24.625V38.7454C24.625 36.8387 26.3088 35.4479 28.1847 35.4479H36.1661C38.042 35.4479 39.7258 36.8387 39.7258 38.7454V50.736H40.1567C45.1733 50.736 47.6816 50.736 49.24 49.3312C50.7985 47.9264 50.7985 45.6654 50.7985 41.1434V30.9743C50.7985 27.7182 50.7985 26.0901 50.0683 24.6591C49.3381 23.228 47.9668 22.1685 45.2242 20.0494L42.5637 17.9939C37.6065 14.1637 35.1279 12.2487 32.1754 12.2487C29.2229 12.2487 26.7443 14.1637 21.787 17.9939L19.1265 20.0494L19.1265 20.0494C16.3839 22.1685 15.0126 23.228 14.2824 24.6591ZM37.9272 50.736V38.7454C37.9272 38.0031 37.2288 37.2465 36.1661 37.2465H28.1847C27.122 37.2465 26.4236 38.0031 26.4236 38.7454V50.736H37.9272Z" fill="#222222"/>
</svg>
