<svg width="38" height="39" viewBox="0 0 38 39" fill="none" xmlns="http://www.w3.org/2000/svg">
<path fill-rule="evenodd" clip-rule="evenodd" d="M1.28244 12.659C0.552246 14.09 0.552246 15.7181 0.552246 18.9742V29.1433C0.552246 33.6653 0.552246 35.9263 2.1107 37.3311C3.66915 38.7359 6.17744 38.7359 11.194 38.7359H11.625V26.7453C11.625 24.8387 13.3088 23.4479 15.1847 23.4479H23.1661C25.042 23.4479 26.7258 24.8387 26.7258 26.7453V38.7359H27.1567C32.1733 38.7359 34.6816 38.7359 36.24 37.3311C37.7985 35.9263 37.7985 33.6653 37.7985 29.1433V18.9742C37.7985 15.7181 37.7985 14.09 37.0683 12.659C36.3381 11.2279 34.9668 10.1684 32.2242 8.04932L29.5637 5.99376C24.6065 2.16361 22.1279 0.248535 19.1754 0.248535C16.2229 0.248535 13.7443 2.16361 8.78699 5.99376L6.12655 8.04932L6.12655 8.04932C3.38393 10.1684 2.01262 11.2279 1.28244 12.659ZM24.9272 38.7359V26.7453C24.9272 26.0031 24.2288 25.2465 23.1661 25.2465H15.1847C14.122 25.2465 13.4236 26.0031 13.4236 26.7453V38.7359H24.9272Z" fill="#222222"/>
</svg>
