<svg width="22" height="21" viewBox="0 0 22 21" fill="none" xmlns="http://www.w3.org/2000/svg">
<path d="M6.14186 6.97324C6.41691 4.49778 8.50931 2.625 11 2.625V2.625C13.4907 2.625 15.5831 4.49778 15.8581 6.97324L16.0785 8.95618C16.0813 8.98146 16.0827 8.9941 16.0841 9.0066C16.1969 9.98983 16.517 10.938 17.0231 11.7884C17.0295 11.7992 17.0361 11.8102 17.0492 11.832L17.555 12.6749C18.0139 13.4399 18.2434 13.8224 18.1939 14.1364C18.1609 14.3453 18.0534 14.5352 17.8912 14.671C17.6475 14.875 17.2014 14.875 16.3093 14.875H5.6907C4.7986 14.875 4.35255 14.875 4.10879 14.671C3.9466 14.5352 3.83907 14.3453 3.80611 14.1364C3.75657 13.8224 3.98606 13.4399 4.44504 12.6749L4.95082 11.832C4.96391 11.8102 4.97045 11.7992 4.97689 11.7884C5.48302 10.938 5.80306 9.98983 5.91589 9.0066C5.91732 8.9941 5.91873 8.98146 5.92154 8.95618L6.14186 6.97324Z" stroke="#33363F" stroke-width="1.75"/>
<path d="M7.5 14.875C7.5 15.3346 7.59053 15.7898 7.76642 16.2144C7.94231 16.639 8.20012 17.0249 8.52513 17.3499C8.85013 17.6749 9.23597 17.9327 9.66061 18.1086C10.0852 18.2845 10.5404 18.375 11 18.375C11.4596 18.375 11.9148 18.2845 12.3394 18.1086C12.764 17.9327 13.1499 17.6749 13.4749 17.3499C13.7999 17.0249 14.0577 16.639 14.2336 16.2144C14.4095 15.7898 14.5 15.3346 14.5 14.875" stroke="#33363F" stroke-width="1.75" stroke-linecap="round"/>
</svg>
