<svg width="27" height="27" viewBox="0 0 27 27" fill="none" xmlns="http://www.w3.org/2000/svg">
<path d="M13.4486 2.5625C7.44609 2.5625 2.5625 7.46906 2.5625 13.5C2.5625 19.5309 7.46906 24.4375 13.5 24.4375C19.5309 24.4375 24.4375 19.5309 24.4375 13.5C24.4375 7.46906 19.508 2.5625 13.4486 2.5625ZM13.5 22.25C8.67547 22.25 4.75 18.3245 4.75 13.5C4.75 8.67547 8.65141 4.75 13.4486 4.75C18.3027 4.75 22.25 8.67547 22.25 13.5C22.25 18.3245 18.3245 22.25 13.5 22.25Z" fill="black"/>
<path d="M12.4062 8.03125H14.5938V15.6875H12.4062V8.03125ZM12.4062 16.7812H14.5938V18.9688H12.4062V16.7812Z" fill="black"/>
</svg>
