<svg width="95" height="82" viewBox="0 0 95 82" fill="none" xmlns="http://www.w3.org/2000/svg">
<path fill-rule="evenodd" clip-rule="evenodd" d="M20.8779 34.5978C19.7915 36.6366 19.7915 38.9561 19.7915 43.5951V58.0831C19.7915 64.5256 19.7915 67.7469 22.1102 69.7483C24.429 71.7498 28.1609 71.7498 35.6248 71.7498H36.604V54.6667C36.604 52.0944 38.9671 50.25 41.5623 50.25H53.4373C56.0326 50.25 58.3957 52.0944 58.3957 54.6667V71.7498H59.3748C66.8387 71.7498 70.5707 71.7498 72.8894 69.7483C75.2082 67.7469 75.2082 64.5256 75.2082 58.0831V43.5951C75.2082 38.9561 75.2082 36.6366 74.1218 34.5978C73.0354 32.5589 70.9951 31.0494 66.9145 28.0304L62.9561 25.1018C55.5805 19.6449 51.8927 16.9165 47.4998 16.9165C43.107 16.9165 39.4192 19.6449 32.0435 25.1018L28.0852 28.0304C24.0046 31.0494 21.9643 32.5589 20.8779 34.5978ZM56.3957 71.7498V54.6667C56.3957 53.465 55.2144 52.25 53.4373 52.25H41.5623C39.7853 52.25 38.604 53.465 38.604 54.6667V71.7498H56.3957Z" fill="#222222"/>
</svg>
