<svg width="71" height="64" viewBox="0 0 71 64" fill="none" xmlns="http://www.w3.org/2000/svg">
<path fill-rule="evenodd" clip-rule="evenodd" d="M15.6036 27.0031C14.7917 28.5944 14.7917 30.4048 14.7917 34.0255V45.3332C14.7917 50.3615 14.7917 52.8756 16.5246 54.4377C18.2576 55.9998 21.0467 55.9998 26.625 55.9998H27.1042V42.6667C27.1042 40.5465 28.9765 39 31.0625 39H39.9375C42.0234 39 43.8958 40.5465 43.8958 42.6667V55.9998H44.375C49.9533 55.9998 52.7424 55.9998 54.4754 54.4377C56.2083 52.8756 56.2083 50.3615 56.2083 45.3332V34.0255C56.2083 30.4048 56.2083 28.5944 55.3964 27.0031C54.5844 25.4118 53.0596 24.2337 50.0099 21.8774L47.0515 19.5916C41.5392 15.3326 38.7831 13.2031 35.5 13.2031C32.2169 13.2031 29.4608 15.3326 23.9484 19.5916L20.9901 21.8774C17.9404 24.2337 16.4156 25.4118 15.6036 27.0031ZM41.8958 55.9998V42.6667C41.8958 41.8413 41.1192 41 39.9375 41H31.0625C29.8808 41 29.1042 41.8413 29.1042 42.6667V55.9998H41.8958Z" fill="#222222"/>
</svg>
