<svg width="71" height="64" viewBox="0 0 71 64" fill="none" xmlns="http://www.w3.org/2000/svg">
<path fill-rule="evenodd" clip-rule="evenodd" d="M15.6037 27.0031C14.7917 28.5944 14.7917 30.4048 14.7917 34.0255V45.3332C14.7917 50.3615 14.7917 52.8756 16.5247 54.4377C18.2577 55.9998 21.0468 55.9998 26.6251 55.9998H27.1042V42.6667C27.1042 40.5465 28.9766 39 31.0626 39H39.9376C42.0235 39 43.8959 40.5465 43.8959 42.6667V55.9998H44.3751C49.9534 55.9998 52.7425 55.9998 54.4755 54.4377C56.2084 52.8756 56.2084 50.3615 56.2084 45.3332V34.0255C56.2084 30.4048 56.2084 28.5944 55.3965 27.0031C54.5845 25.4118 53.0597 24.2337 50.01 21.8774L47.0516 19.5916C41.5393 15.3326 38.7832 13.2031 35.5001 13.2031C32.217 13.2031 29.4608 15.3326 23.9485 19.5916L20.9902 21.8774C17.9405 24.2337 16.4156 25.4118 15.6037 27.0031ZM41.8959 55.9998V42.6667C41.8959 41.8413 41.1193 41 39.9376 41H31.0626C29.8809 41 29.1042 41.8413 29.1042 42.6667V55.9998H41.8959Z" fill="#222222"/>
</svg>
